# xmcd
#
# Track frame offsets:
#	150
#	9729
#	21140
#	31458
#	40677
#	53355
#	62979
#	74940
#	84948
#	94157
#	106689
#	117306
#
# Disc length: 1674 seconds
#
# Revision: 1
# Processed by: cddbd v1.5.1PL2 Copyright (c) Steve Scherf et al.
# Submitted via: EasyCDDAExtractor 6.2.0.3
#
DISCID=9706880c
DTITLE=Harlow Wilcox and The Oakies - Groovy Grubworm And Other Golden Guitar Gr
DTITLE=eats
DYEAR=1969
DGENRE=Instrumental
TTITLE0=Groovy Grubworm
TTITLE1=Wipe Out
TTITLE2=Walk, Don't Run
TTITLE3=The Gold Eagle
TTITLE4=Raunchy
TTITLE5=Sad Is The Lonely
TTITLE6=Golden Guitar Flower
TTITLE7=Mexico
TTITLE8=Wheels
TTITLE9=Guitar Boogie
TTITLE10=Honky Tonk
TTITLE11=Moose Trot
EXTD=
EXTT0=
EXTT1=
EXTT2=
EXTT3=
EXTT4=
EXTT5=
EXTT6=
EXTT7=
EXTT8=
EXTT9=
EXTT10=
EXTT11=
PLAYORDER=
